<?xml version="1.0" standalone="no"?><!DOCTYPE svg PUBLIC "-//W3C//DTD SVG 1.1//EN" "http://www.w3.org/Graphics/SVG/1.1/DTD/svg11.dtd"><svg t="1637203396874" class="icon" viewBox="0 0 1024 1024" version="1.1" xmlns="http://www.w3.org/2000/svg" p-id="2230" xmlns:xlink="http://www.w3.org/1999/xlink" width="200" height="200"><defs><style type="text/css"></style></defs><path d="M765.31 883.22H319.25a43.74 43.74 0 0 1-43.69-43.68V232.89a43.74 43.74 0 0 1 43.69-43.69h446.06A43.74 43.74 0 0 1 809 232.89v606.65a43.74 43.74 0 0 1-43.69 43.68z m-446.06-678a27.72 27.72 0 0 0-27.69 27.69v606.63a27.72 27.72 0 0 0 27.69 27.68h446.06A27.72 27.72 0 0 0 793 839.54V232.89a27.72 27.72 0 0 0-27.69-27.69z" fill="" p-id="2231"></path><path d="M252.81 206.56l335.27-89.83a43.78 43.78 0 0 1 53.5 30.89L657 205.2H318.69z m126.62-17.36h256.73l-10-37.44a27.73 27.73 0 0 0-33.91-19.58z" fill="" p-id="2232"></path><path d="M276 844.17L126.32 285.68a43.78 43.78 0 0 1 30.89-53.5L363.09 177 306 208.64a27.78 27.78 0 0 0-14.39 24.25v63l-84.73 22.7a5.68 5.68 0 0 0-4 6.95l24.48 91.36a5.71 5.71 0 0 0 6.94 4l57.32-15.36v434c0 0.47 0 1 0.09 1.67v0.32z m3-628l-117.58 31.5a27.8 27.8 0 0 0-19.58 33.91l133.79 499.3v-354.5l-37.18 10A21.7 21.7 0 0 1 211.84 421l-24.48-91.36a21.7 21.7 0 0 1 15.32-26.54l72.88-19.53v-50.7a43.35 43.35 0 0 1 3.37-16.74z" fill="" p-id="2233"></path><path d="M742.72 407.42H347.79a21.69 21.69 0 0 1-21.67-21.67v-94.59a21.69 21.69 0 0 1 21.67-21.67h394.93a21.69 21.69 0 0 1 21.67 21.67v94.59a21.69 21.69 0 0 1-21.67 21.67zM347.79 285.49a5.68 5.68 0 0 0-5.67 5.67v94.59a5.68 5.68 0 0 0 5.67 5.67h394.93a5.74 5.74 0 0 0 5.67-5.67v-94.59a5.74 5.74 0 0 0-5.67-5.67zM424.26 798.82h234.93v16H424.26z" fill="" p-id="2234"></path></svg>